<svg width="816" height="968" viewBox="0 0 816 968" fill="none" xmlns="http://www.w3.org/2000/svg">
    <rect x="130.5" y="117.5" width="556" height="556" rx="17.5" stroke="black" stroke-width="5"/>
    <circle cx="408" cy="408" r="405.5" stroke="black" stroke-width="5"/>
    <path d="M132.875 339.032L626.639 123.719L566.224 658.988L132.875 339.032Z" fill="#D9D9D9" fill-opacity="0.02" stroke="black" stroke-width="5"/>
    <path d="M275.807 967V894.273H284.614V959.188H318.42V967H275.807ZM390.588 930.636C390.588 938.307 389.203 944.936 386.434 950.523C383.664 956.11 379.864 960.419 375.034 963.449C370.205 966.479 364.689 967.994 358.486 967.994C352.284 967.994 346.767 966.479 341.938 963.449C337.108 960.419 333.309 956.11 330.539 950.523C327.769 944.936 326.384 938.307 326.384 930.636C326.384 922.966 327.769 916.337 330.539 910.75C333.309 905.163 337.108 900.854 341.938 897.824C346.767 894.794 352.284 893.278 358.486 893.278C364.689 893.278 370.205 894.794 375.034 897.824C379.864 900.854 383.664 905.163 386.434 910.75C389.203 916.337 390.588 922.966 390.588 930.636ZM382.066 930.636C382.066 924.339 381.012 919.024 378.905 914.692C376.822 910.359 373.993 907.08 370.418 904.855C366.867 902.63 362.89 901.517 358.486 901.517C354.083 901.517 350.094 902.63 346.519 904.855C342.968 907.08 340.139 910.359 338.032 914.692C335.948 919.024 334.907 924.339 334.907 930.636C334.907 936.934 335.948 942.249 338.032 946.581C340.139 950.913 342.968 954.192 346.519 956.418C350.094 958.643 354.083 959.756 358.486 959.756C362.89 959.756 366.867 958.643 370.418 956.418C373.993 954.192 376.822 950.913 378.905 946.581C381.012 942.249 382.066 936.934 382.066 930.636ZM455.113 917C454.331 914.609 453.301 912.466 452.023 910.572C450.768 908.655 449.265 907.021 447.513 905.672C445.785 904.322 443.82 903.293 441.618 902.582C439.417 901.872 437.002 901.517 434.374 901.517C430.065 901.517 426.147 902.63 422.62 904.855C419.092 907.08 416.287 910.359 414.203 914.692C412.12 919.024 411.078 924.339 411.078 930.636C411.078 936.934 412.132 942.249 414.239 946.581C416.346 950.913 419.199 954.192 422.797 956.418C426.396 958.643 430.444 959.756 434.942 959.756C439.109 959.756 442.778 958.868 445.951 957.092C449.147 955.293 451.632 952.76 453.408 949.493C455.207 946.202 456.107 942.331 456.107 937.881L458.806 938.449H436.931V930.636H464.63V938.449C464.63 944.438 463.351 949.647 460.794 954.074C458.261 958.501 454.757 961.934 450.283 964.372C445.832 966.787 440.719 967.994 434.942 967.994C428.503 967.994 422.845 966.479 417.968 963.449C413.114 960.419 409.327 956.11 406.604 950.523C403.905 944.936 402.556 938.307 402.556 930.636C402.556 924.884 403.325 919.711 404.864 915.118C406.426 910.501 408.628 906.571 411.469 903.328C414.31 900.085 417.672 897.599 421.554 895.871C425.437 894.143 429.71 893.278 434.374 893.278C438.209 893.278 441.784 893.858 445.098 895.018C448.436 896.155 451.408 897.777 454.012 899.884C456.64 901.967 458.829 904.464 460.581 907.376C462.333 910.265 463.541 913.473 464.203 917H455.113ZM541.077 930.636C541.077 938.307 539.692 944.936 536.922 950.523C534.152 956.11 530.352 960.419 525.523 963.449C520.693 966.479 515.177 967.994 508.974 967.994C502.772 967.994 497.256 966.479 492.426 963.449C487.597 960.419 483.797 956.11 481.027 950.523C478.257 944.936 476.872 938.307 476.872 930.636C476.872 922.966 478.257 916.337 481.027 910.75C483.797 905.163 487.597 900.854 492.426 897.824C497.256 894.794 502.772 893.278 508.974 893.278C515.177 893.278 520.693 894.794 525.523 897.824C530.352 900.854 534.152 905.163 536.922 910.75C539.692 916.337 541.077 922.966 541.077 930.636ZM532.554 930.636C532.554 924.339 531.5 919.024 529.393 914.692C527.31 910.359 524.481 907.08 520.906 904.855C517.355 902.63 513.378 901.517 508.974 901.517C504.571 901.517 500.582 902.63 497.007 904.855C493.456 907.08 490.627 910.359 488.52 914.692C486.437 919.024 485.395 924.339 485.395 930.636C485.395 936.934 486.437 942.249 488.52 946.581C490.627 950.913 493.456 954.192 497.007 956.418C500.582 958.643 504.571 959.756 508.974 959.756C513.378 959.756 517.355 958.643 520.906 956.418C524.481 954.192 527.31 950.913 529.393 946.581C531.5 942.249 532.554 936.934 532.554 930.636Z" fill="black"/>
</svg>
    